<mxfile host="Electron" agent="Mozilla/5.0 (Windows NT 10.0; Win64; x64) AppleWebKit/537.36 (KHTML, like Gecko) draw.io/28.2.5 Chrome/138.0.7204.251 Electron/37.6.1 Safari/537.36" version="28.2.5">
  <diagram name="Страница — 1" id="V1uK5yqAyBCtoiLsfIzU">
    <mxGraphModel dx="2323" dy="1650" grid="1" gridSize="5" guides="1" tooltips="1" connect="1" arrows="1" fold="1" page="1" pageScale="1" pageWidth="827" pageHeight="1169" math="0" shadow="0">
      <root>
        <mxCell id="0" />
        <mxCell id="1" parent="0" />
        <mxCell id="1ucIMOLkBXTStqLE_etg-36" style="edgeStyle=orthogonalEdgeStyle;rounded=0;orthogonalLoop=1;jettySize=auto;html=1;entryX=0.5;entryY=0;entryDx=0;entryDy=0;endArrow=none;endFill=0;" parent="1" source="1ucIMOLkBXTStqLE_etg-1" target="1ucIMOLkBXTStqLE_etg-2" edge="1">
          <mxGeometry relative="1" as="geometry" />
        </mxCell>
        <mxCell id="1ucIMOLkBXTStqLE_etg-1" value="Начало" style="rounded=1;whiteSpace=wrap;html=1;" parent="1" vertex="1">
          <mxGeometry x="335" y="35" width="225" height="75" as="geometry" />
        </mxCell>
        <mxCell id="1ucIMOLkBXTStqLE_etg-35" style="edgeStyle=orthogonalEdgeStyle;rounded=0;orthogonalLoop=1;jettySize=auto;html=1;endArrow=none;endFill=0;" parent="1" source="1ucIMOLkBXTStqLE_etg-2" target="1ucIMOLkBXTStqLE_etg-3" edge="1">
          <mxGeometry relative="1" as="geometry" />
        </mxCell>
        <mxCell id="1ucIMOLkBXTStqLE_etg-2" value="Ввод text" style="shape=parallelogram;perimeter=parallelogramPerimeter;whiteSpace=wrap;html=1;fixedSize=1;" parent="1" vertex="1">
          <mxGeometry x="335" y="130" width="225" height="150" as="geometry" />
        </mxCell>
        <mxCell id="1ucIMOLkBXTStqLE_etg-34" style="edgeStyle=orthogonalEdgeStyle;rounded=0;orthogonalLoop=1;jettySize=auto;html=1;entryX=0.5;entryY=0;entryDx=0;entryDy=0;endArrow=none;endFill=0;" parent="1" source="1ucIMOLkBXTStqLE_etg-3" target="1ucIMOLkBXTStqLE_etg-4" edge="1">
          <mxGeometry relative="1" as="geometry" />
        </mxCell>
        <mxCell id="1ucIMOLkBXTStqLE_etg-3" value="new_text = пустая строка" style="rounded=0;whiteSpace=wrap;html=1;" parent="1" vertex="1">
          <mxGeometry x="335" y="300" width="225" height="150" as="geometry" />
        </mxCell>
        <mxCell id="1ucIMOLkBXTStqLE_etg-33" style="edgeStyle=orthogonalEdgeStyle;rounded=0;orthogonalLoop=1;jettySize=auto;html=1;entryX=0.5;entryY=0;entryDx=0;entryDy=0;endArrow=none;endFill=0;" parent="1" source="1ucIMOLkBXTStqLE_etg-4" target="1ucIMOLkBXTStqLE_etg-5" edge="1">
          <mxGeometry relative="1" as="geometry" />
        </mxCell>
        <mxCell id="1ucIMOLkBXTStqLE_etg-4" value="word = пустая строка" style="rounded=0;whiteSpace=wrap;html=1;" parent="1" vertex="1">
          <mxGeometry x="335" y="470" width="225" height="150" as="geometry" />
        </mxCell>
        <mxCell id="1ucIMOLkBXTStqLE_etg-45" style="edgeStyle=orthogonalEdgeStyle;rounded=0;orthogonalLoop=1;jettySize=auto;html=1;entryX=0.5;entryY=0;entryDx=0;entryDy=0;endArrow=none;endFill=0;" parent="1" source="1ucIMOLkBXTStqLE_etg-5" target="1ucIMOLkBXTStqLE_etg-6" edge="1">
          <mxGeometry relative="1" as="geometry" />
        </mxCell>
        <mxCell id="1ucIMOLkBXTStqLE_etg-5" value="k = количество символов в text - 1;&lt;div&gt;k &amp;gt; -1;&lt;/div&gt;&lt;div&gt;k = k - 1&lt;/div&gt;" style="shape=hexagon;perimeter=hexagonPerimeter2;whiteSpace=wrap;html=1;fixedSize=1;" parent="1" vertex="1">
          <mxGeometry x="334" y="640" width="227" height="150" as="geometry" />
        </mxCell>
        <mxCell id="1ucIMOLkBXTStqLE_etg-10" style="edgeStyle=orthogonalEdgeStyle;rounded=0;orthogonalLoop=1;jettySize=auto;html=1;entryX=0.5;entryY=0;entryDx=0;entryDy=0;endArrow=none;endFill=0;" parent="1" source="1ucIMOLkBXTStqLE_etg-6" target="1ucIMOLkBXTStqLE_etg-7" edge="1">
          <mxGeometry relative="1" as="geometry" />
        </mxCell>
        <mxCell id="1ucIMOLkBXTStqLE_etg-11" style="edgeStyle=orthogonalEdgeStyle;rounded=0;orthogonalLoop=1;jettySize=auto;html=1;entryX=0.5;entryY=0;entryDx=0;entryDy=0;endArrow=none;endFill=0;" parent="1" source="1ucIMOLkBXTStqLE_etg-6" target="1ucIMOLkBXTStqLE_etg-9" edge="1">
          <mxGeometry relative="1" as="geometry" />
        </mxCell>
        <mxCell id="1ucIMOLkBXTStqLE_etg-6" value="элемент в text&amp;nbsp;&lt;div&gt;с индексом k является&lt;div&gt;пробелом&lt;/div&gt;&lt;/div&gt;" style="rhombus;whiteSpace=wrap;html=1;" parent="1" vertex="1">
          <mxGeometry x="335" y="810" width="225" height="150" as="geometry" />
        </mxCell>
        <mxCell id="1ucIMOLkBXTStqLE_etg-12" style="edgeStyle=orthogonalEdgeStyle;rounded=0;orthogonalLoop=1;jettySize=auto;html=1;entryX=0.5;entryY=0;entryDx=0;entryDy=0;endArrow=none;endFill=0;" parent="1" source="1ucIMOLkBXTStqLE_etg-7" target="1ucIMOLkBXTStqLE_etg-8" edge="1">
          <mxGeometry relative="1" as="geometry" />
        </mxCell>
        <mxCell id="1ucIMOLkBXTStqLE_etg-7" value="new_text = new_text + word + &#39; &#39;" style="rounded=0;whiteSpace=wrap;html=1;" parent="1" vertex="1">
          <mxGeometry x="561" y="980" width="225" height="150" as="geometry" />
        </mxCell>
        <mxCell id="1ucIMOLkBXTStqLE_etg-8" value="word = пустая строка" style="rounded=0;whiteSpace=wrap;html=1;" parent="1" vertex="1">
          <mxGeometry x="561" y="1150" width="225" height="150" as="geometry" />
        </mxCell>
        <mxCell id="1ucIMOLkBXTStqLE_etg-9" value="word = элемент в text&amp;nbsp;&lt;div&gt;с индексом k + word&lt;/div&gt;" style="rounded=0;whiteSpace=wrap;html=1;" parent="1" vertex="1">
          <mxGeometry x="109" y="980" width="225" height="150" as="geometry" />
        </mxCell>
        <mxCell id="1ucIMOLkBXTStqLE_etg-13" value="" style="endArrow=none;html=1;rounded=0;" parent="1" edge="1">
          <mxGeometry width="50" height="50" relative="1" as="geometry">
            <mxPoint x="220" y="1380" as="sourcePoint" />
            <mxPoint x="220" y="1130" as="targetPoint" />
          </mxGeometry>
        </mxCell>
        <mxCell id="1ucIMOLkBXTStqLE_etg-14" value="" style="endArrow=none;html=1;rounded=0;" parent="1" edge="1">
          <mxGeometry width="50" height="50" relative="1" as="geometry">
            <mxPoint x="220" y="1380" as="sourcePoint" />
            <mxPoint x="670" y="1380" as="targetPoint" />
          </mxGeometry>
        </mxCell>
        <mxCell id="1ucIMOLkBXTStqLE_etg-16" value="" style="endArrow=none;html=1;rounded=0;entryX=0.482;entryY=1.007;entryDx=0;entryDy=0;entryPerimeter=0;" parent="1" target="1ucIMOLkBXTStqLE_etg-8" edge="1">
          <mxGeometry width="50" height="50" relative="1" as="geometry">
            <mxPoint x="670" y="1380" as="sourcePoint" />
            <mxPoint x="720" y="1330" as="targetPoint" />
          </mxGeometry>
        </mxCell>
        <mxCell id="1ucIMOLkBXTStqLE_etg-17" value="" style="endArrow=none;html=1;rounded=0;" parent="1" edge="1">
          <mxGeometry width="50" height="50" relative="1" as="geometry">
            <mxPoint x="460" y="1420" as="sourcePoint" />
            <mxPoint x="460" y="1380" as="targetPoint" />
          </mxGeometry>
        </mxCell>
        <mxCell id="1ucIMOLkBXTStqLE_etg-18" style="edgeStyle=orthogonalEdgeStyle;rounded=0;orthogonalLoop=1;jettySize=auto;html=1;entryX=0.5;entryY=0;entryDx=0;entryDy=0;endArrow=none;endFill=0;" parent="1" source="1ucIMOLkBXTStqLE_etg-20" edge="1">
          <mxGeometry relative="1" as="geometry">
            <mxPoint x="687" y="1590" as="targetPoint" />
            <Array as="points">
              <mxPoint x="670" y="1495" />
              <mxPoint x="670" y="1590" />
            </Array>
          </mxGeometry>
        </mxCell>
        <mxCell id="1ucIMOLkBXTStqLE_etg-19" style="edgeStyle=orthogonalEdgeStyle;rounded=0;orthogonalLoop=1;jettySize=auto;html=1;endArrow=none;endFill=0;" parent="1" source="1ucIMOLkBXTStqLE_etg-20" edge="1">
          <mxGeometry relative="1" as="geometry">
            <mxPoint x="240" y="1940" as="targetPoint" />
          </mxGeometry>
        </mxCell>
        <mxCell id="1ucIMOLkBXTStqLE_etg-20" value="k = 0" style="rhombus;whiteSpace=wrap;html=1;" parent="1" vertex="1">
          <mxGeometry x="348" y="1420" width="225" height="150" as="geometry" />
        </mxCell>
        <mxCell id="1ucIMOLkBXTStqLE_etg-23" style="edgeStyle=orthogonalEdgeStyle;rounded=0;orthogonalLoop=1;jettySize=auto;html=1;entryX=0.5;entryY=0;entryDx=0;entryDy=0;endArrow=none;endFill=0;" parent="1" source="1ucIMOLkBXTStqLE_etg-21" target="1ucIMOLkBXTStqLE_etg-22" edge="1">
          <mxGeometry relative="1" as="geometry" />
        </mxCell>
        <mxCell id="1ucIMOLkBXTStqLE_etg-21" value="new_text = new_text + word" style="rounded=0;whiteSpace=wrap;html=1;" parent="1" vertex="1">
          <mxGeometry x="561" y="1590" width="225" height="150" as="geometry" />
        </mxCell>
        <mxCell id="1ucIMOLkBXTStqLE_etg-22" value="word = пустая строка" style="rounded=0;whiteSpace=wrap;html=1;" parent="1" vertex="1">
          <mxGeometry x="561" y="1760" width="225" height="150" as="geometry" />
        </mxCell>
        <mxCell id="1ucIMOLkBXTStqLE_etg-24" value="" style="endArrow=none;html=1;rounded=0;" parent="1" edge="1">
          <mxGeometry width="50" height="50" relative="1" as="geometry">
            <mxPoint x="675" y="1940" as="sourcePoint" />
            <mxPoint x="675" y="1910" as="targetPoint" />
          </mxGeometry>
        </mxCell>
        <mxCell id="1ucIMOLkBXTStqLE_etg-25" value="" style="endArrow=none;html=1;rounded=0;" parent="1" edge="1">
          <mxGeometry width="50" height="50" relative="1" as="geometry">
            <mxPoint x="240" y="1940" as="sourcePoint" />
            <mxPoint x="675" y="1940" as="targetPoint" />
          </mxGeometry>
        </mxCell>
        <mxCell id="1ucIMOLkBXTStqLE_etg-26" value="" style="endArrow=none;html=1;rounded=0;" parent="1" edge="1">
          <mxGeometry width="50" height="50" relative="1" as="geometry">
            <mxPoint x="460" y="1980" as="sourcePoint" />
            <mxPoint x="460" y="1940" as="targetPoint" />
          </mxGeometry>
        </mxCell>
        <mxCell id="1ucIMOLkBXTStqLE_etg-27" value="" style="endArrow=none;html=1;rounded=0;" parent="1" edge="1">
          <mxGeometry width="50" height="50" relative="1" as="geometry">
            <mxPoint x="40" y="715" as="sourcePoint" />
            <mxPoint x="460" y="1980" as="targetPoint" />
            <Array as="points">
              <mxPoint x="40" y="1980" />
            </Array>
          </mxGeometry>
        </mxCell>
        <mxCell id="1ucIMOLkBXTStqLE_etg-28" value="" style="endArrow=classic;html=1;rounded=0;entryX=0;entryY=0.5;entryDx=0;entryDy=0;" parent="1" target="1ucIMOLkBXTStqLE_etg-5" edge="1">
          <mxGeometry width="50" height="50" relative="1" as="geometry">
            <mxPoint x="40" y="715" as="sourcePoint" />
            <mxPoint x="90" y="670" as="targetPoint" />
          </mxGeometry>
        </mxCell>
        <mxCell id="1ucIMOLkBXTStqLE_etg-29" value="" style="endArrow=none;html=1;rounded=0;" parent="1" edge="1">
          <mxGeometry width="50" height="50" relative="1" as="geometry">
            <mxPoint x="561" y="715" as="sourcePoint" />
            <mxPoint x="880" y="715" as="targetPoint" />
          </mxGeometry>
        </mxCell>
        <mxCell id="1ucIMOLkBXTStqLE_etg-30" value="" style="endArrow=none;html=1;rounded=0;" parent="1" edge="1">
          <mxGeometry width="50" height="50" relative="1" as="geometry">
            <mxPoint x="880" y="2060" as="sourcePoint" />
            <mxPoint x="880" y="715" as="targetPoint" />
          </mxGeometry>
        </mxCell>
        <mxCell id="1ucIMOLkBXTStqLE_etg-31" value="" style="endArrow=none;html=1;rounded=0;" parent="1" edge="1">
          <mxGeometry width="50" height="50" relative="1" as="geometry">
            <mxPoint x="460" y="2060" as="sourcePoint" />
            <mxPoint x="880" y="2060" as="targetPoint" />
          </mxGeometry>
        </mxCell>
        <mxCell id="1ucIMOLkBXTStqLE_etg-32" value="" style="endArrow=none;html=1;rounded=0;" parent="1" edge="1">
          <mxGeometry width="50" height="50" relative="1" as="geometry">
            <mxPoint x="460" y="2120" as="sourcePoint" />
            <mxPoint x="460" y="2060" as="targetPoint" />
          </mxGeometry>
        </mxCell>
        <mxCell id="1ucIMOLkBXTStqLE_etg-38" style="edgeStyle=orthogonalEdgeStyle;rounded=0;orthogonalLoop=1;jettySize=auto;html=1;entryX=0.5;entryY=0;entryDx=0;entryDy=0;endArrow=none;endFill=0;" parent="1" source="1ucIMOLkBXTStqLE_etg-39" target="1ucIMOLkBXTStqLE_etg-41" edge="1">
          <mxGeometry relative="1" as="geometry" />
        </mxCell>
        <mxCell id="1ucIMOLkBXTStqLE_etg-39" value="text = new_text" style="rounded=0;whiteSpace=wrap;html=1;" parent="1" vertex="1">
          <mxGeometry x="348" y="2120" width="225" height="150" as="geometry" />
        </mxCell>
        <mxCell id="1ucIMOLkBXTStqLE_etg-40" style="edgeStyle=orthogonalEdgeStyle;rounded=0;orthogonalLoop=1;jettySize=auto;html=1;entryX=0.5;entryY=0;entryDx=0;entryDy=0;endArrow=none;endFill=0;" parent="1" source="1ucIMOLkBXTStqLE_etg-41" edge="1">
          <mxGeometry relative="1" as="geometry">
            <mxPoint x="461" y="2460" as="targetPoint" />
          </mxGeometry>
        </mxCell>
        <mxCell id="1ucIMOLkBXTStqLE_etg-41" value="new_text = пустая строка" style="rounded=0;whiteSpace=wrap;html=1;" parent="1" vertex="1">
          <mxGeometry x="348" y="2290" width="225" height="150" as="geometry" />
        </mxCell>
        <mxCell id="1ucIMOLkBXTStqLE_etg-42" style="edgeStyle=orthogonalEdgeStyle;rounded=0;orthogonalLoop=1;jettySize=auto;html=1;entryX=0.5;entryY=0;entryDx=0;entryDy=0;endArrow=none;endFill=0;" parent="1" source="1ucIMOLkBXTStqLE_etg-43" edge="1">
          <mxGeometry relative="1" as="geometry">
            <mxPoint x="461" y="2630" as="targetPoint" />
          </mxGeometry>
        </mxCell>
        <mxCell id="1ucIMOLkBXTStqLE_etg-43" value="word = пустая строка" style="rounded=0;whiteSpace=wrap;html=1;" parent="1" vertex="1">
          <mxGeometry x="348" y="2460" width="225" height="150" as="geometry" />
        </mxCell>
        <mxCell id="1ucIMOLkBXTStqLE_etg-49" style="edgeStyle=orthogonalEdgeStyle;rounded=0;orthogonalLoop=1;jettySize=auto;html=1;entryX=0.5;entryY=0;entryDx=0;entryDy=0;endArrow=none;endFill=0;" parent="1" source="1ucIMOLkBXTStqLE_etg-44" target="1ucIMOLkBXTStqLE_etg-47" edge="1">
          <mxGeometry relative="1" as="geometry" />
        </mxCell>
        <mxCell id="1ucIMOLkBXTStqLE_etg-44" value="i = 0;&lt;div&gt;i &amp;lt;&amp;nbsp;&lt;span style=&quot;background-color: transparent; color: light-dark(rgb(0, 0, 0), rgb(255, 255, 255));&quot;&gt;количество символов в text;&lt;/span&gt;&lt;/div&gt;&lt;div&gt;&lt;span style=&quot;background-color: transparent; color: light-dark(rgb(0, 0, 0), rgb(255, 255, 255));&quot;&gt;&amp;nbsp;i++&lt;/span&gt;&lt;/div&gt;" style="shape=hexagon;perimeter=hexagonPerimeter2;whiteSpace=wrap;html=1;fixedSize=1;" parent="1" vertex="1">
          <mxGeometry x="347" y="2630" width="227" height="150" as="geometry" />
        </mxCell>
        <mxCell id="1ucIMOLkBXTStqLE_etg-46" style="edgeStyle=orthogonalEdgeStyle;rounded=0;orthogonalLoop=1;jettySize=auto;html=1;entryX=0.5;entryY=0;entryDx=0;entryDy=0;endArrow=none;endFill=0;" parent="1" source="1ucIMOLkBXTStqLE_etg-47" edge="1">
          <mxGeometry relative="1" as="geometry">
            <mxPoint x="686" y="2970" as="targetPoint" />
            <Array as="points">
              <mxPoint x="669" y="2875" />
              <mxPoint x="669" y="2970" />
            </Array>
          </mxGeometry>
        </mxCell>
        <mxCell id="1ucIMOLkBXTStqLE_etg-47" value="элемент в text с индексом i&amp;nbsp;&lt;div&gt;не равен &#39; &#39;&lt;div&gt;&lt;br&gt;&lt;/div&gt;&lt;/div&gt;" style="rhombus;whiteSpace=wrap;html=1;" parent="1" vertex="1">
          <mxGeometry x="348" y="2800" width="225" height="150" as="geometry" />
        </mxCell>
        <mxCell id="1ucIMOLkBXTStqLE_etg-48" value="word = word + элемент в text с индексом i" style="rounded=0;whiteSpace=wrap;html=1;" parent="1" vertex="1">
          <mxGeometry x="560" y="2970" width="225" height="150" as="geometry" />
        </mxCell>
        <mxCell id="1ucIMOLkBXTStqLE_etg-50" style="edgeStyle=orthogonalEdgeStyle;rounded=0;orthogonalLoop=1;jettySize=auto;html=1;entryX=0.5;entryY=0;entryDx=0;entryDy=0;endArrow=none;endFill=0;" parent="1" edge="1">
          <mxGeometry relative="1" as="geometry">
            <mxPoint x="348" y="2875" as="sourcePoint" />
            <mxPoint x="233.5" y="2970" as="targetPoint" />
          </mxGeometry>
        </mxCell>
        <mxCell id="1ucIMOLkBXTStqLE_etg-66" style="edgeStyle=orthogonalEdgeStyle;rounded=0;orthogonalLoop=1;jettySize=auto;html=1;endArrow=none;endFill=0;" parent="1" source="1ucIMOLkBXTStqLE_etg-53" edge="1">
          <mxGeometry relative="1" as="geometry">
            <mxPoint x="420" y="3330" as="targetPoint" />
          </mxGeometry>
        </mxCell>
        <mxCell id="1ucIMOLkBXTStqLE_etg-53" value="j = 0;&lt;div&gt;j &amp;lt;&amp;nbsp;&lt;span style=&quot;background-color: transparent; color: light-dark(rgb(0, 0, 0), rgb(255, 255, 255));&quot;&gt;количество символов в word;&lt;/span&gt;&lt;/div&gt;&lt;div&gt;&lt;span style=&quot;background-color: transparent; color: light-dark(rgb(0, 0, 0), rgb(255, 255, 255));&quot;&gt;&amp;nbsp;j++&lt;/span&gt;&lt;/div&gt;" style="shape=hexagon;perimeter=hexagonPerimeter2;whiteSpace=wrap;html=1;fixedSize=1;" parent="1" vertex="1">
          <mxGeometry x="121" y="2970" width="227" height="150" as="geometry" />
        </mxCell>
        <mxCell id="1ucIMOLkBXTStqLE_etg-55" value="new_text = new_text + элемент в word&lt;div&gt;с индексом -j-1&lt;/div&gt;" style="rounded=0;whiteSpace=wrap;html=1;" parent="1" vertex="1">
          <mxGeometry x="120" y="3140" width="225" height="150" as="geometry" />
        </mxCell>
        <mxCell id="1ucIMOLkBXTStqLE_etg-59" style="edgeStyle=orthogonalEdgeStyle;rounded=0;orthogonalLoop=1;jettySize=auto;html=1;entryX=0.5;entryY=0;entryDx=0;entryDy=0;endArrow=none;endFill=0;" parent="1" edge="1">
          <mxGeometry relative="1" as="geometry">
            <mxPoint x="232.19" y="3140" as="targetPoint" />
            <mxPoint x="232.19" y="3120" as="sourcePoint" />
          </mxGeometry>
        </mxCell>
        <mxCell id="1ucIMOLkBXTStqLE_etg-60" value="new_text = new_text + &#39; &#39;" style="rounded=0;whiteSpace=wrap;html=1;" parent="1" vertex="1">
          <mxGeometry x="123" y="3345" width="225" height="150" as="geometry" />
        </mxCell>
        <mxCell id="1ucIMOLkBXTStqLE_etg-63" value="" style="endArrow=none;html=1;rounded=0;" parent="1" edge="1">
          <mxGeometry width="50" height="50" relative="1" as="geometry">
            <mxPoint x="230" y="3320" as="sourcePoint" />
            <mxPoint x="230" y="3290" as="targetPoint" />
          </mxGeometry>
        </mxCell>
        <mxCell id="1ucIMOLkBXTStqLE_etg-64" value="" style="endArrow=none;html=1;rounded=0;exitX=0;exitY=0.5;exitDx=0;exitDy=0;" parent="1" source="1ucIMOLkBXTStqLE_etg-53" edge="1">
          <mxGeometry width="50" height="50" relative="1" as="geometry">
            <mxPoint x="180" y="3370" as="sourcePoint" />
            <mxPoint x="230" y="3320" as="targetPoint" />
            <Array as="points">
              <mxPoint x="60" y="3045" />
              <mxPoint x="60" y="3320" />
            </Array>
          </mxGeometry>
        </mxCell>
        <mxCell id="1ucIMOLkBXTStqLE_etg-65" value="" style="endArrow=classic;html=1;rounded=0;entryX=0;entryY=0.5;entryDx=0;entryDy=0;" parent="1" target="1ucIMOLkBXTStqLE_etg-53" edge="1">
          <mxGeometry width="50" height="50" relative="1" as="geometry">
            <mxPoint x="60" y="3045" as="sourcePoint" />
            <mxPoint x="110" y="2995" as="targetPoint" />
          </mxGeometry>
        </mxCell>
        <mxCell id="1ucIMOLkBXTStqLE_etg-67" style="edgeStyle=orthogonalEdgeStyle;rounded=0;orthogonalLoop=1;jettySize=auto;html=1;entryX=0.5;entryY=0;entryDx=0;entryDy=0;endArrow=none;endFill=0;" parent="1" edge="1">
          <mxGeometry relative="1" as="geometry">
            <mxPoint x="236" y="3515" as="targetPoint" />
            <mxPoint x="236" y="3495" as="sourcePoint" />
          </mxGeometry>
        </mxCell>
        <mxCell id="1ucIMOLkBXTStqLE_etg-68" value="word = пустая строка" style="rounded=0;whiteSpace=wrap;html=1;" parent="1" vertex="1">
          <mxGeometry x="123" y="3515" width="225" height="150" as="geometry" />
        </mxCell>
        <mxCell id="1ucIMOLkBXTStqLE_etg-69" value="" style="endArrow=none;html=1;rounded=0;" parent="1" edge="1">
          <mxGeometry width="50" height="50" relative="1" as="geometry">
            <mxPoint x="670" y="3680" as="sourcePoint" />
            <mxPoint x="670" y="3120" as="targetPoint" />
          </mxGeometry>
        </mxCell>
        <mxCell id="1ucIMOLkBXTStqLE_etg-70" value="" style="endArrow=none;html=1;rounded=0;entryX=0.5;entryY=1;entryDx=0;entryDy=0;" parent="1" edge="1" target="1ucIMOLkBXTStqLE_etg-68">
          <mxGeometry width="50" height="50" relative="1" as="geometry">
            <mxPoint x="420" y="3680" as="sourcePoint" />
            <mxPoint x="420" y="3640" as="targetPoint" />
            <Array as="points">
              <mxPoint x="235" y="3680" />
            </Array>
          </mxGeometry>
        </mxCell>
        <mxCell id="1ucIMOLkBXTStqLE_etg-71" value="" style="endArrow=none;html=1;rounded=0;" parent="1" edge="1">
          <mxGeometry width="50" height="50" relative="1" as="geometry">
            <mxPoint x="420" y="3680" as="sourcePoint" />
            <mxPoint x="670" y="3680" as="targetPoint" />
          </mxGeometry>
        </mxCell>
        <mxCell id="1ucIMOLkBXTStqLE_etg-72" value="" style="endArrow=none;html=1;rounded=0;" parent="1" edge="1">
          <mxGeometry width="50" height="50" relative="1" as="geometry">
            <mxPoint x="460.07" y="3720" as="sourcePoint" />
            <mxPoint x="460.07" y="3680" as="targetPoint" />
          </mxGeometry>
        </mxCell>
        <mxCell id="1ucIMOLkBXTStqLE_etg-74" style="edgeStyle=orthogonalEdgeStyle;rounded=0;orthogonalLoop=1;jettySize=auto;html=1;endArrow=none;endFill=0;" parent="1" source="1ucIMOLkBXTStqLE_etg-73" edge="1">
          <mxGeometry relative="1" as="geometry">
            <mxPoint x="620" y="3900" as="targetPoint" />
          </mxGeometry>
        </mxCell>
        <mxCell id="1ucIMOLkBXTStqLE_etg-73" value="&lt;div&gt;&lt;div&gt;i = количество элементов в text - 1&lt;/div&gt;&lt;/div&gt;" style="rhombus;whiteSpace=wrap;html=1;" parent="1" vertex="1">
          <mxGeometry x="347" y="3720" width="223" height="150" as="geometry" />
        </mxCell>
        <mxCell id="1ucIMOLkBXTStqLE_etg-81" style="edgeStyle=orthogonalEdgeStyle;rounded=0;orthogonalLoop=1;jettySize=auto;html=1;entryX=0.5;entryY=0;entryDx=0;entryDy=0;endArrow=none;endFill=0;" parent="1" source="1ucIMOLkBXTStqLE_etg-75" target="1ucIMOLkBXTStqLE_etg-76" edge="1">
          <mxGeometry relative="1" as="geometry" />
        </mxCell>
        <mxCell id="1ucIMOLkBXTStqLE_etg-75" value="j = 0;&lt;div&gt;j &amp;lt;&amp;nbsp;&lt;span style=&quot;background-color: transparent; color: light-dark(rgb(0, 0, 0), rgb(255, 255, 255));&quot;&gt;количество символов в word;&lt;/span&gt;&lt;/div&gt;&lt;div&gt;&lt;span style=&quot;background-color: transparent; color: light-dark(rgb(0, 0, 0), rgb(255, 255, 255));&quot;&gt;&amp;nbsp;j++&lt;/span&gt;&lt;/div&gt;" style="shape=hexagon;perimeter=hexagonPerimeter2;whiteSpace=wrap;html=1;fixedSize=1;" parent="1" vertex="1">
          <mxGeometry x="505" y="3900" width="227" height="150" as="geometry" />
        </mxCell>
        <mxCell id="1ucIMOLkBXTStqLE_etg-76" value="new_text = new_text + элемент word с&lt;div&gt;индексом -j-1&lt;/div&gt;" style="rounded=0;whiteSpace=wrap;html=1;" parent="1" vertex="1">
          <mxGeometry x="507" y="4070" width="225" height="150" as="geometry" />
        </mxCell>
        <mxCell id="1ucIMOLkBXTStqLE_etg-79" value="" style="endArrow=none;html=1;rounded=0;" parent="1" edge="1">
          <mxGeometry width="50" height="50" relative="1" as="geometry">
            <mxPoint x="620" y="4240" as="sourcePoint" />
            <mxPoint x="620" y="4220" as="targetPoint" />
          </mxGeometry>
        </mxCell>
        <mxCell id="1ucIMOLkBXTStqLE_etg-82" value="" style="endArrow=none;html=1;rounded=0;" parent="1" edge="1">
          <mxGeometry width="50" height="50" relative="1" as="geometry">
            <mxPoint x="460" y="4240" as="sourcePoint" />
            <mxPoint x="620" y="4240" as="targetPoint" />
          </mxGeometry>
        </mxCell>
        <mxCell id="1ucIMOLkBXTStqLE_etg-83" value="" style="endArrow=classic;html=1;rounded=0;entryX=0;entryY=0.5;entryDx=0;entryDy=0;endFill=1;" parent="1" target="1ucIMOLkBXTStqLE_etg-75" edge="1">
          <mxGeometry width="50" height="50" relative="1" as="geometry">
            <mxPoint x="460.14" y="4240" as="sourcePoint" />
            <mxPoint x="460.14" y="3980" as="targetPoint" />
            <Array as="points">
              <mxPoint x="460" y="3975" />
            </Array>
          </mxGeometry>
        </mxCell>
        <mxCell id="1ucIMOLkBXTStqLE_etg-84" value="" style="endArrow=none;html=1;rounded=0;" parent="1" edge="1">
          <mxGeometry width="50" height="50" relative="1" as="geometry">
            <mxPoint x="732" y="3975" as="sourcePoint" />
            <mxPoint x="620" y="4280" as="targetPoint" />
            <Array as="points">
              <mxPoint x="780" y="3975" />
              <mxPoint x="780" y="4280" />
            </Array>
          </mxGeometry>
        </mxCell>
        <mxCell id="1ucIMOLkBXTStqLE_etg-85" value="word = пустая строка" style="rounded=0;whiteSpace=wrap;html=1;" parent="1" vertex="1">
          <mxGeometry x="508" y="4320" width="223" height="150" as="geometry" />
        </mxCell>
        <mxCell id="1ucIMOLkBXTStqLE_etg-86" value="" style="endArrow=none;html=1;rounded=0;exitX=0.5;exitY=0;exitDx=0;exitDy=0;" parent="1" source="1ucIMOLkBXTStqLE_etg-85" edge="1">
          <mxGeometry width="50" height="50" relative="1" as="geometry">
            <mxPoint x="570" y="4330" as="sourcePoint" />
            <mxPoint x="620" y="4280" as="targetPoint" />
          </mxGeometry>
        </mxCell>
        <mxCell id="1ucIMOLkBXTStqLE_etg-87" value="" style="endArrow=none;html=1;rounded=0;" parent="1" edge="1">
          <mxGeometry width="50" height="50" relative="1" as="geometry">
            <mxPoint x="440" y="4520" as="sourcePoint" />
            <mxPoint x="350" y="3795" as="targetPoint" />
            <Array as="points">
              <mxPoint x="245" y="4520" />
              <mxPoint x="240" y="3795" />
            </Array>
          </mxGeometry>
        </mxCell>
        <mxCell id="1ucIMOLkBXTStqLE_etg-88" value="" style="endArrow=none;html=1;rounded=0;" parent="1" edge="1">
          <mxGeometry width="50" height="50" relative="1" as="geometry">
            <mxPoint x="440" y="4520" as="sourcePoint" />
            <mxPoint x="620" y="4470" as="targetPoint" />
            <Array as="points">
              <mxPoint x="620" y="4520" />
            </Array>
          </mxGeometry>
        </mxCell>
        <mxCell id="1ucIMOLkBXTStqLE_etg-89" value="" style="endArrow=none;html=1;rounded=0;" parent="1" edge="1">
          <mxGeometry width="50" height="50" relative="1" as="geometry">
            <mxPoint x="440" y="4600" as="sourcePoint" />
            <mxPoint x="440" y="4520" as="targetPoint" />
          </mxGeometry>
        </mxCell>
        <mxCell id="1ucIMOLkBXTStqLE_etg-90" value="" style="endArrow=none;html=1;rounded=0;" parent="1" edge="1">
          <mxGeometry width="50" height="50" relative="1" as="geometry">
            <mxPoint x="-120" y="4600" as="sourcePoint" />
            <mxPoint x="440" y="4600" as="targetPoint" />
          </mxGeometry>
        </mxCell>
        <mxCell id="1ucIMOLkBXTStqLE_etg-91" value="" style="endArrow=none;html=1;rounded=0;" parent="1" edge="1">
          <mxGeometry width="50" height="50" relative="1" as="geometry">
            <mxPoint x="-120" y="4600" as="sourcePoint" />
            <mxPoint x="-120" y="2705" as="targetPoint" />
          </mxGeometry>
        </mxCell>
        <mxCell id="1ucIMOLkBXTStqLE_etg-92" value="" style="endArrow=classic;html=1;rounded=0;entryX=0;entryY=0.5;entryDx=0;entryDy=0;" parent="1" target="1ucIMOLkBXTStqLE_etg-44" edge="1">
          <mxGeometry width="50" height="50" relative="1" as="geometry">
            <mxPoint x="-120" y="2705" as="sourcePoint" />
            <mxPoint x="-70" y="2670" as="targetPoint" />
          </mxGeometry>
        </mxCell>
        <mxCell id="1ucIMOLkBXTStqLE_etg-93" value="" style="endArrow=none;html=1;rounded=0;" parent="1" edge="1">
          <mxGeometry width="50" height="50" relative="1" as="geometry">
            <mxPoint x="575" y="2705" as="sourcePoint" />
            <mxPoint x="440" y="4640" as="targetPoint" />
            <Array as="points">
              <mxPoint x="920" y="2705" />
              <mxPoint x="920" y="4640" />
            </Array>
          </mxGeometry>
        </mxCell>
        <mxCell id="1ucIMOLkBXTStqLE_etg-94" value="" style="endArrow=none;html=1;rounded=0;" parent="1" edge="1">
          <mxGeometry width="50" height="50" relative="1" as="geometry">
            <mxPoint x="440" y="4720" as="sourcePoint" />
            <mxPoint x="440" y="4640" as="targetPoint" />
          </mxGeometry>
        </mxCell>
        <mxCell id="1ucIMOLkBXTStqLE_etg-95" value="Вывод new_text" style="shape=parallelogram;perimeter=parallelogramPerimeter;whiteSpace=wrap;html=1;fixedSize=1;" parent="1" vertex="1">
          <mxGeometry x="334" y="4720" width="225" height="150" as="geometry" />
        </mxCell>
        <mxCell id="1ucIMOLkBXTStqLE_etg-96" value="" style="endArrow=none;html=1;rounded=0;" parent="1" edge="1">
          <mxGeometry width="50" height="50" relative="1" as="geometry">
            <mxPoint x="440" y="4900" as="sourcePoint" />
            <mxPoint x="440" y="4870" as="targetPoint" />
          </mxGeometry>
        </mxCell>
        <mxCell id="1ucIMOLkBXTStqLE_etg-97" value="Конец" style="rounded=1;whiteSpace=wrap;html=1;" parent="1" vertex="1">
          <mxGeometry x="330" y="4895" width="225" height="75" as="geometry" />
        </mxCell>
        <mxCell id="JbBX4pLXAPmUO78e4LJL-1" value="" style="endArrow=none;html=1;rounded=0;" edge="1" parent="1">
          <mxGeometry width="50" height="50" relative="1" as="geometry">
            <mxPoint x="235" y="3345" as="sourcePoint" />
            <mxPoint x="420" y="3330" as="targetPoint" />
            <Array as="points">
              <mxPoint x="235" y="3330" />
            </Array>
          </mxGeometry>
        </mxCell>
      </root>
    </mxGraphModel>
  </diagram>
</mxfile>
